<svg width="24" height="24" viewBox="0 0 24 24" fill="none" xmlns="http://www.w3.org/2000/svg">
<path d="M3.32811 6.37734V3.375C3.32811 2.96016 3.66327 2.625 4.07811 2.625H19.9219C20.3367 2.625 20.6719 2.96016 20.6719 3.375V6.37734C21.0633 6.40078 21.375 6.72656 21.375 7.125V10.2117C21.3765 10.779 21.2616 11.3406 21.0375 11.8617C20.9367 12.1008 20.8125 12.3258 20.6719 12.5391V20.625C20.6719 21.0375 20.3367 21.375 19.9219 21.375H4.07811C3.66327 21.375 3.32811 21.0398 3.32811 20.625V12.5391C3.18527 12.3252 3.06286 12.0985 2.96248 11.8617C2.73983 11.3391 2.62498 10.7836 2.62498 10.2117V7.125C2.62498 6.72656 2.9367 6.40078 3.32811 6.37734ZM18.9844 4.3125H5.01561V6.375H18.9844V4.3125ZM10.5 19.6898H13.5V17.25H10.5V19.6898ZM5.01561 19.6898H8.99998V16.5C8.99998 16.0852 9.33514 15.75 9.74998 15.75H14.25C14.6648 15.75 15 16.0852 15 16.5V19.6898H18.9844V14.0133C18.9164 14.0461 18.8461 14.0789 18.7734 14.107C18.2508 14.3273 17.6953 14.4375 17.1234 14.4375C16.5515 14.4375 15.9984 14.3273 15.4734 14.107C15.15 13.9711 14.8453 13.7977 14.5664 13.5891C14.5617 13.5867 14.557 13.5867 14.5523 13.5891C14.2726 13.7985 13.9679 13.9725 13.6453 14.107C13.1226 14.3273 12.5672 14.4375 11.9953 14.4375C11.4234 14.4375 10.8703 14.3273 10.3453 14.107C10.0219 13.9711 9.71717 13.7977 9.43827 13.5891C9.43358 13.5867 9.42889 13.5867 9.4242 13.5891C9.14443 13.7985 8.83976 13.9725 8.51717 14.107C7.99452 14.3273 7.43905 14.4375 6.86717 14.4375C6.2953 14.4375 5.74217 14.3273 5.21717 14.107C5.14686 14.0766 5.07655 14.0461 5.00623 14.0133V19.6898H5.01561ZM4.31248 10.2117C4.31248 11.6133 5.46092 12.75 6.8742 12.75C7.83045 12.75 8.66483 12.232 9.10545 11.4633C9.17342 11.3461 9.2953 11.2734 9.43124 11.2734H9.4453C9.57889 11.2734 9.70311 11.3461 9.77108 11.4633C9.99594 11.8554 10.3206 12.1811 10.7121 12.4071C11.1036 12.6331 11.5479 12.7514 12 12.75C12.9539 12.75 13.7859 12.2344 14.2265 11.468C14.2969 11.3484 14.4234 11.2734 14.5617 11.2734C14.7 11.2734 14.8289 11.3484 14.8969 11.468C15.123 11.8586 15.4481 12.1828 15.8394 12.4079C16.2307 12.6329 16.6744 12.7509 17.1258 12.75C18.539 12.75 19.6875 11.6133 19.6875 10.2117V8.07422C19.6875 8.06719 19.6828 8.0625 19.6758 8.0625H4.3242C4.31717 8.0625 4.31248 8.06719 4.31248 8.07422V10.2117Z" fill="#035865"/>
</svg>
