<svg width="120" height="50" viewBox="0 0 120 50" fill="none" xmlns="http://www.w3.org/2000/svg">
<path d="M38.0534 28.6387C39.8061 21.2717 35.2098 13.8893 27.7871 12.1498C20.3644 10.4102 12.9263 14.9721 11.1736 22.3391C9.42087 29.7061 14.0173 37.0884 21.4399 38.828C28.8626 40.5676 36.3007 36.0057 38.0534 28.6387Z" fill="#5F259F"/>
<path d="M80.6417 33.3206V28.3436C80.6417 27.1184 80.1788 26.5059 79.0216 26.5059C78.5587 26.5059 78.0187 26.5825 77.7101 26.659V33.9331C77.7101 34.1628 77.4786 34.3926 77.2472 34.3926H75.4728C75.2413 34.3926 75.0099 34.1628 75.0099 33.9331V25.4339C75.0099 25.1276 75.2413 24.8979 75.4728 24.8213C76.63 24.4385 77.7872 24.2088 79.0216 24.2088C81.7989 24.2088 83.3419 25.6636 83.3419 28.3436V34.0097C83.3419 34.2394 83.1105 34.4691 82.879 34.4691H81.7989C81.1046 34.4691 80.6417 33.9331 80.6417 33.3206ZM87.5851 30.3344L87.5079 31.0235C87.5079 31.9423 88.1251 32.4783 89.128 32.4783C89.8995 32.4783 90.5938 32.2486 91.3653 31.8658C91.4425 31.8658 91.5196 31.7892 91.5968 31.7892C91.7511 31.7892 91.8282 31.8658 91.9054 31.9423C91.9825 32.0189 92.1368 32.2486 92.1368 32.2486C92.2911 32.4783 92.4454 32.7846 92.4454 33.0143C92.4454 33.3972 92.2139 33.78 91.9054 33.9331C91.0567 34.3926 90.0538 34.6223 88.9737 34.6223C87.7394 34.6223 86.7364 34.316 85.9649 33.7034C85.1935 33.0143 84.7306 32.0955 84.7306 30.9469V27.9607C84.7306 25.587 86.2735 24.1322 88.8966 24.1322C91.4425 24.1322 92.9083 25.5105 92.9083 27.9607V29.7984C92.9083 30.0281 92.6768 30.2578 92.4454 30.2578H87.5851V30.3344ZM87.5079 28.6498H90.4395V27.8841C90.4395 26.9653 89.8995 26.3527 88.9737 26.3527C88.0479 26.3527 87.5079 26.8887 87.5079 27.8841V28.6498ZM107.181 30.3344L107.104 31.0235C107.104 31.9423 107.721 32.4783 108.724 32.4783C109.495 32.4783 110.189 32.2486 110.961 31.8658C111.038 31.8658 111.115 31.7892 111.192 31.7892C111.347 31.7892 111.424 31.8658 111.501 31.9423C111.578 32.0189 111.732 32.2486 111.732 32.2486C111.887 32.4783 112.041 32.7846 112.041 33.0143C112.041 33.3972 111.81 33.78 111.501 33.9331C110.652 34.3926 109.649 34.6223 108.569 34.6223C107.335 34.6223 106.332 34.316 105.561 33.7034C104.789 33.0143 104.326 32.0955 104.326 30.9469V27.9607C104.326 25.587 105.869 24.1322 108.492 24.1322C111.038 24.1322 112.504 25.5105 112.504 27.9607V29.7984C112.504 30.0281 112.272 30.2578 112.041 30.2578H107.181V30.3344ZM107.104 28.6498H110.035V27.8841C110.035 26.9653 109.495 26.3527 108.569 26.3527C107.644 26.3527 107.104 26.8887 107.104 27.8841V28.6498ZM61.7404 34.4691H62.8205C63.0519 34.4691 63.2834 34.2394 63.2834 34.0097V28.3436C63.2834 25.7402 61.8947 24.2088 59.5803 24.2088C58.8859 24.2088 58.1145 24.3619 57.6516 24.5151V21.682C57.6516 21.0694 57.1115 20.5334 56.4943 20.5334H55.4143C55.1828 20.5334 54.9514 20.7632 54.9514 20.9929V34.0097C54.9514 34.2394 55.1828 34.4691 55.4143 34.4691H57.1887C57.4201 34.4691 57.6516 34.2394 57.6516 34.0097V26.8122C58.0373 26.659 58.5773 26.5825 58.9631 26.5825C60.1203 26.5825 60.5832 27.1184 60.5832 28.4201V33.3972C60.6603 33.9331 61.1232 34.4691 61.7404 34.4691ZM73.3898 28.0373V30.8704C73.3898 33.244 71.7697 34.6988 69.0695 34.6988C66.4465 34.6988 64.7492 33.244 64.7492 30.8704V28.0373C64.7492 25.6636 66.3693 24.2088 69.0695 24.2088C71.7697 24.2088 73.3898 25.6636 73.3898 28.0373ZM70.6896 28.0373C70.6896 27.1184 70.1496 26.5059 69.1466 26.5059C68.1437 26.5059 67.6037 27.0419 67.6037 28.0373V30.8704C67.6037 31.7892 68.1437 32.3252 69.1466 32.3252C70.1496 32.3252 70.6896 31.7892 70.6896 30.8704V28.0373ZM53.4856 26.7356C53.4856 29.1858 51.634 30.8704 49.1653 30.8704C48.5481 30.8704 48.008 30.7938 47.468 30.5641V34.0097C47.468 34.2394 47.2366 34.4691 47.0051 34.4691H45.2307C44.9993 34.4691 44.7678 34.2394 44.7678 34.0097V21.8351C44.7678 21.5289 44.9993 21.2991 45.2307 21.2226C46.3879 20.8397 47.5452 20.61 48.7795 20.61C51.5569 20.61 53.4856 22.2946 53.4856 24.8979V26.7356ZM50.7082 24.7448C50.7082 23.5197 49.8596 22.9071 48.7024 22.9071C48.008 22.9071 47.5452 23.1368 47.5452 23.1368V28.1904C48.008 28.4201 48.2395 28.4967 48.7795 28.4967C49.9367 28.4967 50.7854 27.8076 50.7854 26.659V24.7448H50.7082ZM103.323 26.7356C103.323 29.1858 101.472 30.8704 99.003 30.8704C98.3858 30.8704 97.8458 30.7938 97.3057 30.5641V34.0097C97.3057 34.2394 97.0743 34.4691 96.8428 34.4691H95.0684C94.837 34.4691 94.6055 34.2394 94.6055 34.0097V21.8351C94.6055 21.5289 94.837 21.2991 95.0684 21.2226C96.2256 20.8397 97.3829 20.61 98.6172 20.61C101.395 20.61 103.323 22.2946 103.323 24.8979V26.7356ZM100.546 24.7448C100.546 23.5197 99.6973 22.9071 98.5401 22.9071C97.8458 22.9071 97.3829 23.1368 97.3829 23.1368V28.1904C97.8458 28.4201 98.0772 28.4967 98.6172 28.4967C99.7745 28.4967 100.623 27.8076 100.623 26.659V24.7448H100.546Z" fill="#5F259F"/>
<path d="M30.8811 21.9118C30.8811 21.3758 30.4182 20.9164 29.8781 20.9164H28.0266L23.7834 16.0925C23.3977 15.6331 22.7805 15.48 22.1633 15.6331L20.6975 16.0925C20.4661 16.1691 20.3889 16.4754 20.5432 16.6285L25.1721 20.993H18.1516C17.9202 20.993 17.7659 21.1461 17.7659 21.3758V22.1415C17.7659 22.6775 18.2288 23.1369 18.7688 23.1369H19.8489V26.8123C19.8489 29.5688 21.3147 31.1768 23.7834 31.1768C24.5549 31.1768 25.1721 31.1002 25.9436 30.7939V33.2441C25.9436 33.9333 26.4836 34.4692 27.1779 34.4692H28.258C28.4895 34.4692 28.7209 34.2395 28.7209 34.0098V23.0604H30.4953C30.7268 23.0604 30.8811 22.9072 30.8811 22.6775V21.9118ZM25.9436 28.4968C25.4807 28.7265 24.8635 28.8031 24.4006 28.8031C23.1662 28.8031 22.5491 28.1905 22.5491 26.8123V23.1369H25.9436V28.4968Z" fill="white"/>
</svg>
