<svg width="120" height="50" viewBox="0 0 120 50" fill="none" xmlns="http://www.w3.org/2000/svg">
<g clip-path="url(#clip0_557_2818)">
<mask id="mask0_557_2818" style="mask-type:luminance" maskUnits="userSpaceOnUse" x="11" y="10" width="97" height="32">
<path d="M11 10H108V42H11V10Z" fill="white"/>
</mask>
<g mask="url(#mask0_557_2818)">
<mask id="mask1_557_2818" style="mask-type:luminance" maskUnits="userSpaceOnUse" x="11" y="10" width="32" height="32">
<path d="M42.8359 10H11V42H42.8359V10Z" fill="white"/>
</mask>
<g mask="url(#mask1_557_2818)">
<path d="M26.9179 42C31.1397 42 35.1884 40.3143 38.1736 37.3137C41.1588 34.3131 42.8359 30.2435 42.8359 26C42.8359 21.7565 41.1588 17.6869 38.1736 14.6863C35.1884 11.6857 31.1397 10 26.9179 10C22.6962 10 18.6475 11.6857 15.6623 14.6863C12.6771 17.6869 11 21.7565 11 26C11 30.2435 12.6771 34.3131 15.6623 37.3137C18.6475 40.3143 22.6962 42 26.9179 42Z" fill="#4B36E2"/>
<path d="M32.0117 31.4854H21.4601V30.4799H32.0057C32.1403 30.4846 32.2681 30.5405 32.3633 30.6361C32.4586 30.7318 32.5142 30.8602 32.519 30.9954C32.5129 31.1278 32.4561 31.2527 32.3605 31.344C32.265 31.4353 32.138 31.486 32.0062 31.4854M31.0108 33.4969H21.4601V32.4914H31.0009C31.1327 32.4974 31.2572 32.5543 31.3483 32.6504C31.4393 32.7465 31.4899 32.8742 31.4894 33.0069C31.4888 33.1369 31.4372 33.2614 31.3456 33.3532C31.2541 33.445 31.1302 33.4967 31.0009 33.4969M32.0181 18.5029C32.1476 18.5033 32.2716 18.5552 32.3631 18.6472C32.4546 18.7392 32.5062 18.8638 32.5066 18.9939C32.507 19.1265 32.4564 19.2542 32.3654 19.3501C32.2743 19.4461 32.1499 19.503 32.0181 19.5089H22.4609V18.5029H32.0181ZM32.0186 20.5144C32.148 20.5146 32.272 20.5662 32.3635 20.658C32.4551 20.7499 32.5067 20.8744 32.5071 21.0044C32.5074 21.137 32.4567 21.2647 32.3657 21.3607C32.2748 21.4567 32.1504 21.5138 32.0186 21.5199H21.4601V20.5149H32.0186V20.5144ZM24.9431 22.5254C25.0777 22.5303 25.2055 22.5862 25.3008 22.6819C25.396 22.7777 25.4516 22.9061 25.4565 23.0414C25.4503 23.1738 25.3935 23.2987 25.298 23.39C25.2024 23.4813 25.0754 23.532 24.9436 23.5314H20.4602V22.5249H24.9436L24.9431 22.5254ZM32.8931 28.4684C33.0275 28.4733 33.1551 28.5291 33.2503 28.6246C33.3454 28.7201 33.401 28.8483 33.406 28.9834C33.3998 29.1159 33.3431 29.2409 33.2475 29.3323C33.152 29.4238 33.0251 29.4747 32.8931 29.4744H28.3734V28.4684H32.8931ZM31.0019 24.5369C31.131 24.5375 31.2547 24.5893 31.346 24.681C31.4373 24.7728 31.4888 24.8971 31.4894 25.0269C31.4904 25.1596 31.4401 25.2876 31.3492 25.3838C31.2583 25.4801 31.1338 25.5371 31.0019 25.5429H21.4601V24.5369H31.0019ZM32.0117 27.4629H22.4609V26.4569H32.0251C32.157 26.4629 32.2814 26.5199 32.3723 26.6162C32.4632 26.7124 32.5135 26.8402 32.5126 26.9729C32.5122 27.1028 32.4607 27.2272 32.3694 27.319C32.278 27.4108 32.1543 27.4625 32.0251 27.4629" fill="white"/>
</g>
<path d="M53.3337 25.8459C51.6623 25.8459 50.2536 24.7059 50.0984 23.1699L51.7459 22.6779C51.8533 23.6139 52.5816 24.2379 53.4053 24.2379C54.1575 24.2379 54.6469 23.8779 54.6469 23.3499C54.6469 21.7659 50.361 22.7019 50.361 19.6179C50.361 18.2379 51.6743 17.2539 53.3098 17.2539C54.9215 17.2539 56.2228 18.1179 56.5093 19.4019L54.826 20.1099C54.6589 19.3539 54.0978 18.8619 53.3098 18.8619C52.6532 18.8619 52.2473 19.1379 52.2473 19.6059C52.2473 20.9379 56.5452 19.8699 56.5452 23.3019C56.5452 24.8259 55.2558 25.8459 53.3337 25.8459ZM63.3471 22.5699C63.3471 22.8099 63.3352 23.0979 63.3232 23.2299H59.0015C59.1686 23.9739 59.6701 24.3819 60.4102 24.3819C61.0072 24.3819 61.4489 24.1059 61.5802 23.6019L63.2277 24.0459C62.8696 25.1859 61.7951 25.8459 60.3625 25.8459C58.2852 25.8459 57.2704 24.2259 57.2704 22.7259C57.2704 21.2259 58.1777 19.6059 60.255 19.6059C62.4278 19.6059 63.3471 21.2259 63.3471 22.5699ZM59.0254 21.9819H61.4728C61.4131 21.3699 61.031 20.9139 60.255 20.9139C59.6223 20.9139 59.1925 21.2739 59.0254 21.9819ZM68.0329 25.6899C67.717 25.7941 67.3865 25.8467 67.054 25.8459C65.7527 25.8459 64.7618 25.1499 64.7618 23.6859V21.1659H63.8067V19.7019H64.7618V17.9499H66.5168V19.7019H67.9733V21.1659H66.5168V23.4579C66.5168 23.9979 66.8033 24.3099 67.2331 24.3099C67.448 24.3099 67.7106 24.2739 67.9136 24.1659L68.0329 25.6899ZM74.7384 19.7019V25.7499H72.9954V24.9459C72.6253 25.4739 71.9687 25.8459 71.1568 25.8459C69.8317 25.8459 68.9363 24.9819 68.9363 23.6499V19.7019H70.6912V23.1819C70.6912 23.8419 71.0971 24.2859 71.7179 24.2859C72.5536 24.2859 72.9954 23.6019 72.9954 22.3539V19.7019H74.7384ZM84.514 25.7499L83.9051 24.0219H80.9205L80.3117 25.7499H78.3537L81.5174 17.3499H83.2963L86.46 25.7499H84.514ZM81.4936 22.4379H83.3321L82.4128 19.8339L81.4936 22.4379ZM92.7684 25.7499L92.1596 24.0219H89.175L88.5661 25.7499H86.6082L89.7719 17.3499H91.5507L94.7144 25.7499H92.7684ZM89.748 22.4379H91.5865L90.6673 19.8339L89.748 22.4379ZM51.6981 36.7979C51.2564 36.7979 50.8565 36.5879 50.7192 36.3119V36.7499H50.2118V32.5019H50.7192V34.1579C50.9102 33.8759 51.3042 33.6779 51.7041 33.6779C52.6353 33.6779 53.1487 34.3499 53.1487 35.2379C53.1487 36.1259 52.6353 36.7979 51.6981 36.7979ZM51.6504 36.3419C52.2413 36.3419 52.6293 35.9039 52.6293 35.2379C52.6293 34.5719 52.2413 34.1339 51.6504 34.1339C51.0594 34.1339 50.6774 34.5719 50.6774 35.2379C50.6774 35.9039 51.0594 36.3419 51.6504 36.3419ZM55.6796 33.7259H56.1989L54.6231 37.8419H54.1037L54.5395 36.7079L53.3636 33.7259H53.9127L54.7962 36.0419L55.6796 33.7259ZM61.0111 36.7499L60.5993 35.6819H58.7428L58.331 36.7499H57.7698L59.4233 32.5499H59.9188L61.5782 36.7499H61.0111ZM58.9279 35.1959H60.4142L59.674 33.2699L58.9279 35.1959ZM63.562 36.1619C64.1649 36.1619 64.5827 36.4139 64.5827 36.9719C64.5827 37.5779 64.0216 37.8899 63.1979 37.8899C62.3443 37.8899 61.813 37.5839 61.813 37.0259C61.813 36.7619 61.9563 36.5459 62.1353 36.4079C61.9861 36.3059 61.8966 36.1559 61.8966 35.9399C61.8966 35.6759 62.0697 35.4779 62.3025 35.3699C62.1413 35.1959 62.0518 34.9679 62.0518 34.6979C62.0518 34.0859 62.5413 33.6779 63.1919 33.6779C63.3889 33.6779 63.5739 33.7199 63.7411 33.7979L64.2126 33.3899L64.5051 33.7259L64.1052 34.0679C64.2485 34.2359 64.332 34.4519 64.332 34.6979C64.332 35.3219 63.8485 35.7179 63.1919 35.7179C62.9989 35.7203 62.8077 35.6814 62.6308 35.6039C62.4577 35.6819 62.3861 35.7839 62.3861 35.9099C62.3861 36.0959 62.5592 36.1619 62.7561 36.1619H63.562ZM63.1919 34.0919C62.8457 34.0919 62.5472 34.3199 62.5472 34.6979C62.5472 35.0819 62.8457 35.3039 63.1919 35.3039C63.5381 35.3039 63.8366 35.0819 63.8366 34.6979C63.8366 34.3199 63.5381 34.0919 63.1919 34.0919ZM63.1979 37.4579C63.7709 37.4579 64.0873 37.2959 64.0873 37.0079C64.0873 36.6839 63.8485 36.5759 63.4904 36.5759H62.8517C62.7499 36.5762 62.6482 36.5702 62.5472 36.5579C62.3622 36.6839 62.3085 36.8459 62.3085 37.0199C62.3085 37.2959 62.6129 37.4579 63.1979 37.4579ZM67.1341 33.7259H67.6534L66.0775 37.8419H65.5582L65.994 36.7079L64.818 33.7259H65.3672L66.2506 36.0419L67.1341 33.7259ZM69.1716 33.6779C69.8998 33.6779 70.4072 34.1099 70.4072 34.8119V36.7499H69.9058V36.2339C69.7327 36.5819 69.3387 36.7979 68.903 36.7979C68.3001 36.7979 67.8882 36.4259 67.8882 35.9039C67.8882 35.3219 68.3598 35.0039 69.3208 34.9079L69.9058 34.8419V34.7819C69.9058 34.3679 69.6133 34.1039 69.1716 34.1039C68.7597 34.1039 68.4672 34.3499 68.4254 34.7579L67.9539 34.6679C68.0434 34.0679 68.5388 33.6779 69.1716 33.6779ZM68.9806 36.3779C69.5655 36.3779 69.9058 35.9879 69.9058 35.3819V35.2379L69.3208 35.3039C68.7119 35.3699 68.3956 35.5799 68.3956 35.8979C68.3956 36.1799 68.6343 36.3779 68.9806 36.3779ZM73.6987 36.7499V33.0359H72.3676V32.5499H75.5671V33.0359H74.2419V36.7499H73.6987ZM78.2562 35.0999C78.2562 35.1719 78.2503 35.2799 78.2443 35.3339H75.8686C75.9044 35.9459 76.2864 36.3479 76.8296 36.3479C77.2892 36.3479 77.6056 36.1319 77.6951 35.7539L78.1727 35.8679C78.0234 36.4559 77.522 36.7979 76.8296 36.7979C75.9282 36.7979 75.3612 36.0959 75.3612 35.2379C75.3612 34.3799 75.9103 33.6779 76.8177 33.6779C77.7071 33.6779 78.2562 34.3199 78.2562 35.0999ZM75.8984 34.9079H77.719C77.6713 34.4459 77.3489 34.1039 76.8177 34.1039C76.3461 34.1039 75.9999 34.4039 75.8984 34.9079ZM80.2286 36.7979C79.3332 36.7979 78.7363 36.1739 78.7363 35.2379C78.7363 34.3019 79.3332 33.6779 80.2286 33.6779C80.927 33.6779 81.4403 34.0619 81.5478 34.6619L81.0464 34.7639C80.9807 34.3979 80.6643 34.1339 80.2405 34.1339C79.6496 34.1339 79.2675 34.5719 79.2675 35.2379C79.2675 35.9039 79.6496 36.3419 80.2405 36.3419C80.6643 36.3419 80.9747 36.1079 81.0583 35.7059L81.5538 35.8079C81.4224 36.4319 80.921 36.7979 80.2286 36.7979ZM82.1855 36.7499V32.5019H82.6929V34.3199C82.9137 33.8879 83.2779 33.6779 83.7196 33.6779C84.4001 33.6779 84.8478 34.1039 84.8478 34.7579V36.7499H84.3404V34.8539C84.3404 34.4099 84.0658 34.1399 83.6062 34.1399C83.051 34.1399 82.6929 34.6439 82.6929 35.4539V36.7499H82.1855ZM85.6715 36.7499V33.7259H86.1789V34.2959C86.3878 33.9359 86.752 33.6779 87.2116 33.6779C87.8384 33.6779 88.286 34.1039 88.286 34.7459V36.7499H87.7787V34.8419C87.7787 34.4339 87.522 34.1399 87.0982 34.1399C86.5371 34.1399 86.1789 34.6259 86.1789 35.4239V36.7499H85.6715ZM90.4658 36.7979C89.5704 36.7979 88.9377 36.1439 88.9377 35.2379C88.9377 34.3319 89.5704 33.6779 90.4658 33.6779C91.3552 33.6779 91.9999 34.3319 91.9999 35.2379C91.9999 36.1439 91.3552 36.7979 90.4658 36.7979ZM90.4658 36.3419C91.0687 36.3419 91.4746 35.8859 91.4746 35.2379C91.4746 34.5899 91.0687 34.1339 90.4658 34.1339C89.8629 34.1339 89.457 34.5899 89.457 35.2379C89.457 35.8859 89.8629 36.3419 90.4658 36.3419ZM93.5867 36.7919C93.0495 36.8459 92.6496 36.6419 92.6496 36.0119V32.5019H93.1569V35.9759C93.1569 36.3059 93.3121 36.3539 93.5629 36.3359L93.5867 36.7919ZM95.5317 36.7979C94.6363 36.7979 94.0036 36.1439 94.0036 35.2379C94.0036 34.3319 94.6363 33.6779 95.5317 33.6779C96.4211 33.6779 97.0658 34.3319 97.0658 35.2379C97.0658 36.1439 96.4211 36.7979 95.5317 36.7979ZM95.5317 36.3419C96.1346 36.3419 96.5405 35.8859 96.5405 35.2379C96.5405 34.5899 96.1346 34.1339 95.5317 34.1339C94.9288 34.1339 94.5229 34.5899 94.5229 35.2379C94.5229 35.8859 94.9288 36.3419 95.5317 36.3419ZM99.261 36.1619C99.8639 36.1619 100.282 36.4139 100.282 36.9719C100.282 37.5779 99.7206 37.8899 98.8969 37.8899C98.0433 37.8899 97.512 37.5839 97.512 37.0259C97.512 36.7619 97.6553 36.5459 97.8343 36.4079C97.6851 36.3059 97.5956 36.1559 97.5956 35.9399C97.5956 35.6759 97.7687 35.4779 98.0015 35.3699C97.8403 35.1959 97.7508 34.9679 97.7508 34.6979C97.7508 34.0859 98.2402 33.6779 98.8909 33.6779C99.0879 33.6779 99.2729 33.7199 99.4401 33.7979L99.9116 33.3899L100.204 33.7259L99.8042 34.0679C99.9474 34.2359 100.031 34.4519 100.031 34.6979C100.031 35.3219 99.5475 35.7179 98.8909 35.7179C98.6979 35.7203 98.5067 35.6814 98.3298 35.6039C98.1567 35.6819 98.085 35.7839 98.085 35.9099C98.085 36.0959 98.2581 36.1619 98.4551 36.1619H99.261ZM98.8909 34.0919C98.5447 34.0919 98.2462 34.3199 98.2462 34.6979C98.2462 35.0819 98.5447 35.3039 98.8909 35.3039C99.2371 35.3039 99.5356 35.0819 99.5356 34.6979C99.5356 34.3199 99.2371 34.0919 98.8909 34.0919ZM98.8969 37.4579C99.4699 37.4579 99.7863 37.2959 99.7863 37.0079C99.7863 36.6839 99.5475 36.5759 99.1893 36.5759H98.5506C98.4489 36.5762 98.3472 36.5702 98.2462 36.5579C98.0612 36.6839 98.0074 36.8459 98.0074 37.0199C98.0074 37.2959 98.3119 37.4579 98.8969 37.4579ZM101.102 33.1559C101.055 33.1569 101.009 33.1484 100.966 33.1309C100.923 33.1134 100.884 33.0874 100.851 33.0543C100.818 33.0213 100.792 32.9819 100.775 32.9385C100.757 32.8951 100.749 32.8487 100.75 32.8019C100.75 32.5979 100.899 32.4419 101.102 32.4419C101.15 32.4404 101.197 32.4487 101.242 32.4661C101.286 32.4836 101.327 32.51 101.361 32.5436C101.395 32.5773 101.422 32.6175 101.44 32.6619C101.458 32.7063 101.467 32.7539 101.466 32.8019C101.466 32.9999 101.311 33.1559 101.102 33.1559ZM100.851 36.7499V33.7259H101.359V36.7499H100.851ZM104.902 35.0999C104.902 35.1719 104.896 35.2799 104.89 35.3339H102.515C102.551 35.9459 102.933 36.3479 103.476 36.3479C103.935 36.3479 104.252 36.1319 104.341 35.7539L104.819 35.8679C104.67 36.4559 104.168 36.7979 103.476 36.7979C102.574 36.7979 102.007 36.0959 102.007 35.2379C102.007 34.3799 102.556 33.6779 103.464 33.6779C104.353 33.6779 104.902 34.3199 104.902 35.0999ZM102.545 34.9079H104.365C104.317 34.4459 103.995 34.1039 103.464 34.1039C102.992 34.1039 102.646 34.4039 102.545 34.9079ZM106.535 36.7979C105.807 36.7979 105.413 36.3419 105.281 35.9159L105.717 35.7239C105.831 36.0779 106.069 36.3659 106.535 36.3659C106.905 36.3659 107.144 36.1499 107.144 35.9039C107.144 35.1299 105.413 35.6279 105.413 34.4819C105.413 34.0019 105.825 33.6779 106.469 33.6779C107.001 33.6779 107.46 33.9779 107.586 34.4219L107.162 34.6079C107.078 34.2959 106.78 34.0979 106.457 34.0979C106.117 34.0979 105.902 34.2359 105.902 34.4759C105.902 35.1239 107.645 34.6499 107.639 35.8979C107.639 36.4259 107.198 36.7979 106.535 36.7979Z" fill="#4229D5"/>
</g>
</g>
<defs>
<clipPath id="clip0_557_2818">
<rect width="97" height="32" fill="white" transform="translate(11 10)"/>
</clipPath>
</defs>
</svg>
