<svg width="351" height="351" viewBox="0 0 351 351" fill="none" xmlns="http://www.w3.org/2000/svg">
<path d="M197.994 43C230.87 48.6603 260.452 66.5106 280.917 93.0374C301.381 119.564 311.246 152.846 308.569 186.331C305.892 219.816 290.867 251.079 266.452 273.966C242.037 296.853 210 309.706 176.648 309.995C143.296 310.284 111.045 297.988 86.2422 275.527C61.4399 253.067 45.8834 222.068 42.635 188.635C39.3865 155.201 48.6814 121.753 68.69 94.8758C88.6986 67.9983 117.972 49.638 150.747 43.4091" stroke="#035865" stroke-linecap="round" stroke-linejoin="round"/>
<path d="M152 323C112.73 316.436 77.7248 294.84 54.6827 262.96C31.6406 231.081 22.4483 191.528 29.1271 153" stroke="#035865" stroke-linecap="round" stroke-linejoin="round"/>
<path d="M315 228C305.879 252.881 290.088 274.856 269.309 291.585C248.529 308.314 223.539 319.171 197 323" stroke="#035865" stroke-linecap="round" stroke-linejoin="round"/>
<path d="M40 113.78C55.0781 81.3158 81.5567 55.3834 114.506 40.8105C147.456 26.2376 184.631 24.0174 219.111 34.5631C253.591 45.1088 283.025 67.7019 301.935 98.1361C320.844 128.57 327.94 164.771 321.901 200" stroke="#035865" stroke-linecap="round" stroke-linejoin="round"/>
<path d="M265 123L266 121" stroke="#035865" stroke-width="7" stroke-linecap="round" stroke-linejoin="round"/>
<path d="M242 148L253 136" stroke="#035865" stroke-width="7" stroke-linecap="round" stroke-linejoin="round"/>
<path d="M96 166.668L152.833 243L230 159" stroke="#035865" stroke-width="7" stroke-linecap="round" stroke-linejoin="round"/>
</svg>
